<svg width="16" height="16" viewBox="0 0 16 16" fill="none" xmlns="http://www.w3.org/2000/svg">
<path d="M1.81656 14C1.69433 14 1.58322 13.9696 1.48322 13.9087C1.38322 13.8478 1.30544 13.7671 1.24989 13.6667C1.19433 13.5662 1.16389 13.4578 1.15856 13.3413C1.15322 13.2249 1.18367 13.1111 1.24989 13L7.41656 2.33333C7.48322 2.22222 7.56944 2.13889 7.67522 2.08333C7.781 2.02778 7.88922 2 7.99989 2C8.11056 2 8.219 2.02778 8.32522 2.08333C8.43144 2.13889 8.51744 2.22222 8.58322 2.33333L14.7499 13C14.8166 13.1111 14.8472 13.2251 14.8419 13.342C14.8366 13.4589 14.8059 13.5671 14.7499 13.6667C14.6939 13.7662 14.6161 13.8469 14.5166 13.9087C14.417 13.9704 14.3059 14.0009 14.1832 14H1.81656ZM7.99989 12C8.18878 12 8.34722 11.936 8.47522 11.808C8.60322 11.68 8.667 11.5218 8.66656 11.3333C8.66611 11.1449 8.60211 10.9867 8.47456 10.8587C8.347 10.7307 8.18878 10.6667 7.99989 10.6667C7.811 10.6667 7.65278 10.7307 7.52522 10.8587C7.39767 10.9867 7.33367 11.1449 7.33322 11.3333C7.33278 11.5218 7.39678 11.6802 7.52522 11.8087C7.65367 11.9371 7.81189 12.0009 7.99989 12ZM7.99989 10C8.18878 10 8.34722 9.936 8.47522 9.808C8.60322 9.68 8.667 9.52178 8.66656 9.33333V7.33333C8.66656 7.14444 8.60256 6.98622 8.47456 6.85867C8.34656 6.73111 8.18833 6.66711 7.99989 6.66667C7.81144 6.66622 7.65322 6.73022 7.52522 6.85867C7.39722 6.98711 7.33322 7.14533 7.33322 7.33333V9.33333C7.33322 9.52222 7.39722 9.68067 7.52522 9.80867C7.65322 9.93667 7.81144 10.0004 7.99989 10Z" fill="#FF6666"/>
</svg>
